<mxfile modified="2021-09-07T04:25:06.795Z" host="app.diagrams.net" agent="5.0 (Windows NT 10.0; Win64; x64) AppleWebKit/537.36 (KHTML, like Gecko) Chrome/93.0.4577.63 Safari/537.36" etag="pnoMwAZgb1umZ7k2O1ie" version="15.1.0" type="github">
  <diagram id="Ht1M8jgEwFfnCIfOTk4-" name="Page-1">
    <mxGraphModel dx="1278" dy="579" grid="1" gridSize="10" guides="1" tooltips="1" connect="1" arrows="1" fold="1" page="1" pageScale="1" pageWidth="1169" pageHeight="827" math="0" shadow="0">
      <root>
        <mxCell id="0" />
        <mxCell id="1" parent="0" />
        <mxCell id="UEzPUAAOIrF-is8g5C7q-88" value="" style="edgeStyle=orthogonalEdgeStyle;rounded=0;orthogonalLoop=1;jettySize=auto;html=1;endArrow=open;endFill=0;strokeWidth=2;" parent="1" edge="1">
          <mxGeometry relative="1" as="geometry">
            <mxPoint x="114.5" y="279.5" as="sourcePoint" />
            <mxPoint x="156.50827256153138" y="279.5" as="targetPoint" />
          </mxGeometry>
        </mxCell>
        <mxCell id="UEzPUAAOIrF-is8g5C7q-87" value="Amazon&lt;br&gt;DynamoDB" style="outlineConnect=0;fontColor=#232F3E;gradientColor=#4D72F3;gradientDirection=north;fillColor=#3334B9;strokeColor=#ffffff;dashed=0;verticalLabelPosition=bottom;verticalAlign=top;align=center;html=1;fontSize=12;fontStyle=0;aspect=fixed;shape=mxgraph.aws4.resourceIcon;resIcon=mxgraph.aws4.dynamodb;labelBackgroundColor=#ffffff;" parent="1" vertex="1">
          <mxGeometry x="630" y="280" width="78" height="78" as="geometry" />
        </mxCell>
        <mxCell id="rDESYYua5IFjKcB7Q5w1-2" value="Actor" style="shape=umlActor;verticalLabelPosition=bottom;verticalAlign=top;html=1;outlineConnect=0;" vertex="1" parent="1">
          <mxGeometry x="70" y="250" width="30" height="60" as="geometry" />
        </mxCell>
        <mxCell id="rDESYYua5IFjKcB7Q5w1-4" value="" style="verticalLabelPosition=bottom;verticalAlign=top;html=1;shadow=0;dashed=0;strokeWidth=1;shape=mxgraph.android.phone2;strokeColor=#c0c0c0;" vertex="1" parent="1">
          <mxGeometry x="180" y="240" width="60" height="110" as="geometry" />
        </mxCell>
        <mxCell id="rDESYYua5IFjKcB7Q5w1-7" value="petbeta-account-api" style="rounded=0;whiteSpace=wrap;html=1;" vertex="1" parent="1">
          <mxGeometry x="300" y="170" width="210" height="60" as="geometry" />
        </mxCell>
        <mxCell id="rDESYYua5IFjKcB7Q5w1-8" value="petbeta-pet-api" style="rounded=0;whiteSpace=wrap;html=1;" vertex="1" parent="1">
          <mxGeometry x="300" y="280" width="210" height="60" as="geometry" />
        </mxCell>
        <mxCell id="rDESYYua5IFjKcB7Q5w1-9" value="petbeta-doacao-api" style="rounded=0;whiteSpace=wrap;html=1;" vertex="1" parent="1">
          <mxGeometry x="300" y="384" width="210" height="60" as="geometry" />
        </mxCell>
        <mxCell id="rDESYYua5IFjKcB7Q5w1-10" value="petbeta--api" style="rounded=0;whiteSpace=wrap;html=1;" vertex="1" parent="1">
          <mxGeometry x="300" y="520" width="210" height="60" as="geometry" />
        </mxCell>
      </root>
    </mxGraphModel>
  </diagram>
</mxfile>
